<?xml version="1.0" encoding="UTF-8"?>
<svg xmlns="http://www.w3.org/2000/svg" width="32" height="32" viewBox="0 0 24 24" fill="none" stroke="currentColor" stroke-width="2" stroke-linecap="round" stroke-linejoin="round">
  <style>
    :root {
      color-scheme: light dark;
    }
    path {
      stroke: #4ade80;
    }
    path:first-child {
      fill: #1e293b;
    }
    @media (prefers-color-scheme: dark) {
      path {
        stroke: #4ade80;
      }
      path:first-child {
        fill: #0f172a;
      }
    }
  </style>
  <path d="M4 20h16a2 2 0 0 0 2-2V8a2 2 0 0 0-2-2h-7.93a2 2 0 0 1-1.66-.9l-.82-1.2A2 2 0 0 0 7.93 3H4a2 2 0 0 0-2 2v13c0 1.1.9 2 2 2Z"/>
  <path d="m14 13-2 2 2 2"/>
  <path d="m10 13 2 2-2 2"/>
</svg>